<svg width="200" height="200" viewBox="0 0 501 400" fill="none" xmlns="http://www.w3.org/2000/svg">
<g id="Group">
<g id="Group_2">
<path id="Vector" d="M427.537 148.485C433.126 129.714 434.813 111.74 432.502 95.607C430.191 79.474 423.927 65.5039 414.074 54.509C404.221 43.5141 390.976 35.7137 375.109 31.5611C359.242 27.4086 341.069 26.9868 321.647 30.3203L299.112 109.791C307.609 108.332 315.559 108.517 322.501 110.334C329.443 112.15 335.238 115.563 339.549 120.373C343.859 125.184 346.6 131.296 347.611 138.354C348.622 145.412 347.884 153.276 345.439 161.488L427.537 148.485Z" fill="#0094FF" stroke="white" stroke-width="1.84715"/>
</g>
<g id="Group_3">
<path id="Vector_2" d="M288.953 63.6044C262.568 68.1329 234.726 79.4448 208.365 96.346C182.003 113.247 158.101 135.111 139.18 159.629C120.259 184.147 107.022 210.41 100.866 235.646C94.7096 260.882 95.8628 284.155 104.204 303.008L185.59 247.814C181.941 239.566 181.436 229.384 184.129 218.343C186.823 207.302 192.614 195.812 200.892 185.086C209.17 174.359 219.627 164.794 231.16 157.399C242.693 150.005 254.874 145.056 266.417 143.075L288.953 63.6044Z" fill="#203D5B" stroke="white" stroke-width="1.84715"/>
</g>
<g id="Group_4">
<path id="Vector_3" d="M104.203 303.008C112.753 322.333 128.526 336.27 149.775 343.276C171.023 350.281 196.92 350.083 224.597 342.701L238.262 265.18C226.153 268.409 214.823 268.496 205.527 265.431C196.23 262.366 189.33 256.269 185.589 247.814L104.203 303.008Z" fill="#203D5B" stroke="white" stroke-width="1.84715"/>
</g>
<g id="Group_5">
<path id="Vector_4" d="M224.597 342.701C261.245 332.927 298.798 311.16 330.164 281.509C361.53 251.859 384.538 216.379 394.843 181.769L312.744 194.772C308.236 209.914 298.17 225.436 284.447 238.408C270.724 251.38 254.295 260.904 238.262 265.18L224.597 342.701Z" fill="#203D5B" stroke="white" stroke-width="1.84715"/>
</g>
<g id="Group_6">
<g id="Group_7">
<path id="Vector_5" d="M422.606 56.5852L455.729 27.3122" stroke="#437395" stroke-width="1.84715"/>
<path id="716" d="M471.579 10.3741L460.957 25.4195L458.883 25.748L469.335 11.2038L460.912 12.538L461.381 10.9613L471.9 9.29527L471.579 10.3741ZM476.148 23.0136L474.159 23.3285L477.967 10.5384L473.557 12.5911L474.076 10.8484L480.356 7.88679L480.666 7.83769L476.148 23.0136ZM494.202 5.75306L493.717 7.38165L493.354 7.43921C491.806 7.71068 490.449 8.34741 489.281 9.34941C488.114 10.3514 487.227 11.6417 486.621 13.2202C487.713 12.1776 488.967 11.5439 490.386 11.3193C491.74 11.1049 492.681 11.3972 493.211 12.1963C493.747 12.9943 493.797 14.1263 493.361 15.5924C492.898 17.1484 492.089 18.4626 490.934 19.535C489.787 20.6063 488.479 21.2582 487.011 21.4907C485.521 21.7266 484.478 21.3647 483.881 20.405C483.286 19.4383 483.249 18.0802 483.77 16.3306L483.989 15.5941C484.817 12.8141 486.059 10.5946 487.714 8.93546C489.378 7.26833 491.423 6.22615 493.849 5.80893L494.202 5.75306ZM489.579 12.9693C488.902 13.0765 488.219 13.3724 487.532 13.8568C486.844 14.3413 486.302 14.8984 485.904 15.5281L485.694 16.2335C485.323 17.4783 485.313 18.4353 485.664 19.1046C486.015 19.7739 486.621 20.0402 487.483 19.9036C488.374 19.7625 489.167 19.3338 489.863 18.6174C490.565 17.9 491.07 17.026 491.377 15.9956C491.686 14.9583 491.675 14.1627 491.344 13.6089C491.022 13.047 490.434 12.8338 489.579 12.9693Z" fill="#49A0FB"/>
</g>
<g id="Group_8">
<path id="Vector_6" d="M139.179 157.629L111.751 146.315" stroke="#437395" stroke-width="1.84715"/>
<path id="970" d="M86.0534 142.995C85.498 143.537 84.8884 144 84.2247 144.382C83.5681 144.762 82.8977 145.007 82.2135 145.115C81.3156 145.257 80.5955 145.167 80.0532 144.845C79.5181 144.521 79.1841 144 79.0513 143.283C78.9205 142.56 78.9951 141.727 79.2751 140.787C79.5757 139.777 80.0425 138.837 80.6753 137.966C81.3153 137.093 82.0626 136.385 82.9172 135.841C83.7717 135.297 84.6836 134.949 85.6528 134.795C87.1922 134.551 88.2369 134.92 88.7871 135.9C89.3464 136.872 89.3389 138.323 88.7644 140.253L88.5976 140.813C87.7226 143.752 86.4846 145.994 84.8838 147.539C83.2851 149.077 81.2726 150.055 78.8463 150.472L78.4615 150.533L78.9433 148.915L79.3602 148.849C81.0004 148.562 82.3772 147.952 83.4906 147.018C84.606 146.077 85.4603 144.736 86.0534 142.995ZM83.0068 143.477C83.6695 143.372 84.3376 143.079 85.0108 142.597C85.6911 142.113 86.2461 141.561 86.6756 140.939L86.9041 140.172C87.2789 138.913 87.3021 137.934 86.9738 137.235C86.6455 136.536 86.0502 136.254 85.1879 136.391C84.3185 136.529 83.5233 136.964 82.8024 137.698C82.0835 138.425 81.5666 139.317 81.2516 140.375C80.9448 141.405 80.9445 142.216 81.2508 142.807C81.5663 143.389 82.1516 143.613 83.0068 143.477ZM103.015 133.271L92.3935 148.316L90.3197 148.645L100.772 134.101L92.348 135.435L92.8174 133.858L103.336 132.192L103.015 133.271ZM112.762 138.952C112.093 141.2 111.2 142.933 110.084 144.151C108.968 145.368 107.568 146.111 105.887 146.377C104.226 146.64 103.155 146.302 102.674 145.364C102.195 144.418 102.257 142.886 102.861 140.768L103.624 138.205C104.285 135.986 105.171 134.274 106.284 133.07C107.396 131.865 108.796 131.13 110.485 130.862C112.16 130.597 113.238 130.924 113.718 131.843C114.2 132.755 114.129 134.295 113.503 136.463L112.762 138.952ZM111.566 136.641C112.05 135.016 112.167 133.871 111.917 133.205C111.669 132.533 111.035 132.277 110.016 132.439C109.004 132.599 108.156 133.086 107.473 133.899C106.789 134.713 106.212 135.888 105.74 137.425L104.826 140.496C104.34 142.128 104.223 143.296 104.475 144.001C104.736 144.698 105.362 144.968 106.353 144.811C107.329 144.656 108.162 144.175 108.85 143.367C109.546 142.559 110.139 141.364 110.63 139.784L111.566 136.641Z" fill="#49A0FB"/>
</g>
<g id="Group_9">
<path id="Vector_7" d="M149.775 341.276L124.996 375.873" stroke="#437395" stroke-width="1.84715"/>
<path id="497" d="M99.6004 373.998L101.76 373.656L101.293 375.222L99.134 375.564L98.0901 379.07L96.1018 379.385L97.1457 375.879L90.0583 377.001L90.3949 375.871L100.481 364.3L102.587 363.967L99.6004 373.998ZM92.7695 375.079L97.612 374.313L99.8172 366.906L99.4585 367.358L92.7695 375.079ZM111.59 370.606C111.035 371.149 110.425 371.611 109.762 371.993C109.105 372.374 108.435 372.618 107.751 372.726C106.853 372.869 106.133 372.778 105.59 372.456C105.055 372.132 104.721 371.612 104.588 370.895C104.458 370.171 104.532 369.339 104.812 368.398C105.113 367.388 105.58 366.448 106.212 365.577C106.852 364.705 107.6 363.996 108.454 363.453C109.309 362.909 110.221 362.56 111.19 362.406C112.729 362.163 113.774 362.531 114.324 363.511C114.883 364.484 114.876 365.934 114.301 367.864L114.135 368.424C113.26 371.363 112.022 373.605 110.421 375.15C108.822 376.688 106.81 377.666 104.383 378.083L103.999 378.144L104.48 376.526L104.897 376.46C106.537 376.174 107.914 375.564 109.028 374.63C110.143 373.688 110.997 372.347 111.59 370.606ZM108.544 371.089C109.207 370.984 109.875 370.69 110.548 370.208C111.228 369.724 111.783 369.172 112.213 368.55L112.441 367.783C112.816 366.524 112.839 365.545 112.511 364.846C112.183 364.147 111.587 363.866 110.725 364.002C109.856 364.14 109.06 364.576 108.339 365.309C107.621 366.036 107.104 366.928 106.789 367.986C106.482 369.017 106.482 369.827 106.788 370.418C107.103 371 107.689 371.224 108.544 371.089ZM128.552 360.882L117.931 375.928L115.857 376.256L126.309 361.712L117.885 363.046L118.354 361.469L128.873 359.803L128.552 360.882Z" fill="#49A0FB"/>
</g>
<g id="Group_10">
<path id="Vector_8" d="M330.164 279.51L350.483 298.666" stroke="#437395" stroke-width="1.84715"/>
<path id="655" d="M364.369 281L363.884 282.629L363.521 282.687C361.973 282.958 360.616 283.595 359.448 284.597C358.281 285.599 357.394 286.889 356.788 288.468C357.88 287.425 359.135 286.791 360.553 286.567C361.907 286.352 362.849 286.645 363.378 287.444C363.914 288.242 363.964 289.374 363.528 290.84C363.065 292.396 362.256 293.71 361.101 294.782C359.954 295.854 358.646 296.506 357.178 296.738C355.689 296.974 354.645 296.612 354.048 295.652C353.453 294.686 353.416 293.328 353.937 291.578L354.157 290.842C354.984 288.062 356.226 285.842 357.881 284.183C359.545 282.516 361.59 281.474 364.017 281.056L364.369 281ZM359.746 288.217C359.069 288.324 358.386 288.62 357.699 289.104C357.011 289.589 356.469 290.146 356.071 290.776L355.861 291.481C355.49 292.726 355.48 293.683 355.831 294.352C356.182 295.021 356.788 295.288 357.651 295.151C358.541 295.01 359.335 294.581 360.03 293.865C360.732 293.147 361.237 292.273 361.544 291.243C361.853 290.206 361.842 289.41 361.511 288.856C361.189 288.294 360.601 288.081 359.746 288.217ZM367.565 287.68L370.599 280.024L378.573 278.761L378.045 280.535L371.749 281.532L370.052 285.724C370.945 285.168 371.875 284.813 372.844 284.659C374.263 284.435 375.253 284.713 375.815 285.494C376.379 286.268 376.43 287.429 375.969 288.978C375.506 290.534 374.706 291.83 373.569 292.867C372.441 293.896 371.1 294.533 369.546 294.779C368.171 294.997 367.159 294.805 366.509 294.203C365.86 293.6 365.67 292.655 365.938 291.368L367.808 291.071C367.672 291.916 367.795 292.52 368.176 292.881C368.56 293.235 369.172 293.346 370.013 293.213C370.932 293.067 371.742 292.649 372.444 291.958C373.152 291.266 373.666 290.384 373.985 289.312C374.286 288.302 374.242 287.538 373.853 287.02C373.473 286.494 372.813 286.305 371.872 286.454C371.01 286.591 370.278 286.881 369.677 287.326L369.03 287.824L367.565 287.68ZM379.859 285.733L382.892 278.077L390.867 276.814L390.338 278.587L384.042 279.585L382.346 283.777C383.238 283.221 384.169 282.866 385.138 282.712C386.556 282.488 387.546 282.766 388.108 283.547C388.672 284.32 388.724 285.482 388.263 287.031C387.799 288.587 386.999 289.883 385.862 290.92C384.734 291.949 383.393 292.586 381.84 292.832C380.464 293.05 379.452 292.858 378.803 292.256C378.154 291.653 377.963 290.708 378.231 289.42L380.102 289.124C379.966 289.969 380.088 290.573 380.47 290.934C380.853 291.288 381.465 291.399 382.306 291.266C383.225 291.12 384.036 290.702 384.737 290.011C385.446 289.319 385.96 288.437 386.279 287.365C386.579 286.355 386.535 285.591 386.146 285.073C385.766 284.547 385.106 284.358 384.166 284.507C383.303 284.644 382.572 284.934 381.971 285.379L381.323 285.877L379.859 285.733Z" fill="#49A0FB"/>
</g>
</g>
</g>
</svg>
