<svg width="200" height="150" viewBox="0 0 108 108" fill="black" xmlns="http://www.w3.org/2000/svg">
<g id="simple-icons:javascript">
<path id="Vector" d="M0 0H108V108H0V0ZM99.153 82.242C98.3655 77.3145 95.157 73.1745 85.6395 69.3135C82.3275 67.761 78.6465 66.681 77.553 64.1835C77.1435 62.6985 77.0805 61.8885 77.346 61.011C78.021 58.104 81.4635 57.231 84.1635 58.041C85.9185 58.581 87.5385 59.931 88.5555 62.091C93.2085 59.049 93.2085 59.049 96.453 57.0285C95.238 55.1385 94.635 54.324 93.816 53.5185C90.981 50.346 87.2055 48.726 81.063 48.8655L77.8905 49.266C74.8485 50.0085 71.9505 51.6285 70.1955 53.7885C65.0655 59.598 66.546 69.723 72.756 73.908C78.8985 78.498 87.8805 79.506 89.028 83.8305C90.108 89.0955 85.113 90.783 80.181 90.1755C76.5315 89.3655 74.511 87.5385 72.2835 84.1635L64.0485 88.893C64.9935 91.053 66.0735 91.9935 67.6935 93.8835C75.5235 101.786 95.0985 101.38 98.613 89.3655C98.7435 88.9605 99.693 86.193 98.946 81.9405L99.153 82.242ZM58.7295 49.6395H48.6135C48.6135 58.3605 48.573 67.0275 48.573 75.762C48.573 81.306 48.8565 86.3955 47.952 87.9615C46.467 91.062 42.642 90.666 40.905 90.1215C39.123 89.2395 38.2185 88.0245 37.17 86.274C36.8865 85.8015 36.675 85.392 36.5985 85.392L28.386 90.4545C29.7585 93.2895 31.761 95.7285 34.344 97.281C38.1915 99.576 43.362 100.319 48.7755 99.1035C52.299 98.0865 55.3365 95.994 56.925 92.754C59.22 88.569 58.734 83.439 58.7115 77.697C58.7655 68.454 58.7115 59.2065 58.7115 49.8915L58.7295 49.6395Z" fill="black"/>
</g>
</svg>
