<svg width="500" height="250" viewBox="0 0 633 396" fill="none" xmlns="http://www.w3.org/2000/svg">
<g id="mountains" filter="url(#filter0_d)">
<path id="Union" fill-rule="evenodd" clip-rule="evenodd" d="M145.49 139.359C145.49 149.993 138.999 158.803 130.524 160.365V160.61H127.889L127.83 160.61L127.77 160.61H63.4762H59.8849V160.33C53.0202 159.239 47.9116 155.088 47.9116 150.134C47.9116 145.18 53.0202 141.029 59.8849 139.938V139.658H60.0161C61.0109 132.902 67.5415 127.685 75.4495 127.685C78.5606 127.685 81.4586 128.493 83.8901 129.884C86.5545 122.988 93.162 118.107 100.891 118.107C106.545 118.107 111.599 120.719 114.948 124.821C118.17 120.688 122.749 118.107 127.83 118.107C137.583 118.107 145.49 127.622 145.49 139.359Z" fill="#424242"/>
<path id="Union_2" fill-rule="evenodd" clip-rule="evenodd" d="M503.624 65.6253C506.974 62.9106 511.573 61.2354 516.647 61.2354C526.896 61.2354 535.205 68.0699 535.205 76.5007C535.205 79.7429 533.976 82.7491 531.881 85.2212C536.409 87.204 539.395 90.6014 539.395 94.4596C539.395 99.901 533.456 104.426 525.627 105.358V105.535H470.069L469.953 105.535C459.042 105.535 450.198 97.8964 450.198 88.4738C450.198 79.0511 459.042 71.4126 469.953 71.4126C472.31 71.4126 474.571 71.7692 476.668 72.4235C477.626 64.0794 483.769 57.6436 491.204 57.6436C496.436 57.6436 501.028 60.8299 503.624 65.6253Z" fill="#424242"/>
<g id="Vector 7">
<path d="M190.221 171.175L99.6106 245.811L160.145 232.625L190.221 245.811L250.755 239.343L190.221 171.175Z" fill="url(#paint0_linear)"/>
<path d="M428.55 141.57L388.194 71.4126L319.475 155.378L388.194 125.15L428.55 141.57Z" fill="url(#paint1_linear)"/>
<path d="M450.632 112.96L428.55 141.57L537.816 216.703L450.632 112.96Z" fill="url(#paint2_linear)"/>
<path d="M250.755 239.343L190.221 171.175L99.6106 245.811M250.755 239.343L190.221 245.811L160.145 232.625L99.6106 245.811M250.755 239.343L319.475 155.378M428.55 141.57L388.194 71.4126L319.475 155.378M428.55 141.57L450.632 112.96L537.816 216.703M428.55 141.57L388.194 125.15L319.475 155.378M428.55 141.57L537.816 216.703M99.6106 245.811L9 320.447H625L537.816 216.703" stroke="black" stroke-width="0.598639"/>
</g>
<path id="Vector 10" d="M100.061 245.332L9 320.446L625 320.036L537.348 216.19L428.757 142.307L388.339 125.889L320.652 155.442L251.504 239.586L190.635 245.332L159.957 233.019L100.061 245.332Z" fill="#050505" fill-opacity="0.65"/>
<path id="Vector 8" d="M173.327 57.644C179.526 60.3319 181.572 63.0426 183.504 69.3175C185.241 60.8121 188.193 58.8096 195.177 57.644M199.367 108.828C203.54 108.038 204.791 110.215 206.85 114.515C206.392 109.017 207.129 107.168 209.544 105.236" stroke="black" stroke-width="0.598639"/>
<path id="Vector 9" d="M238.279 76.501C234.247 78.6158 232.331 80.8686 229.299 86.0793C228.074 76.4488 226.015 73.6658 220.918 71.4126" stroke="black" stroke-width="0.598639"/>
<path id="Union_3" fill-rule="evenodd" clip-rule="evenodd" d="M574.342 321.045L586.785 343.045H583.385L589.377 351.276H585.408L591.929 361.753H556.157L562.678 351.276H559.307L565.299 343.045H561.9L574.342 321.045Z" fill="#304E5B"/>
<path id="Union_4" fill-rule="evenodd" clip-rule="evenodd" d="M600.683 341.399L613.126 363.399H609.725L615.717 371.63H611.749L618.27 382.106H582.498L589.018 371.63H585.648L591.64 363.399H588.241L600.683 341.399Z" fill="#304E5B"/>
<path id="Union_5" fill-rule="evenodd" clip-rule="evenodd" d="M513.879 295.902L526.321 317.902H522.921L528.913 326.134H524.945L531.466 336.61H495.694L502.215 326.134H498.844L504.836 317.902H501.436L513.879 295.902Z" fill="#304E5B"/>
<path id="Union_6" fill-rule="evenodd" clip-rule="evenodd" d="M494.124 330.623L506.566 352.623H503.166L509.159 360.855H505.19L511.711 371.33H475.939L482.46 360.855H479.089L485.082 352.623H481.681L494.124 330.623Z" fill="#304E5B"/>
<path id="Union_7" fill-rule="evenodd" clip-rule="evenodd" d="M534.233 321.045L546.675 343.045H543.275L549.267 351.277H545.299L551.82 361.753H516.047L522.568 351.277H519.198L525.19 343.045H521.79L534.233 321.045Z" fill="#304E5B"/>
<ellipse id="Ellipse 9" cx="307.721" cy="32.2015" rx="32.3265" ry="30.2313" fill="#E2DFC0"/>
<path id="Union_8" fill-rule="evenodd" clip-rule="evenodd" d="M554.587 300.691L567.03 322.691H563.63L569.622 330.923H565.653L572.174 341.399H536.402L542.923 330.923H539.553L545.545 322.691H542.145L554.587 300.691Z" fill="#304E5B"/>
</g>
<defs>
<filter id="filter0_d" x="0.982343" y="0.772936" width="631.844" height="394.503" filterUnits="userSpaceOnUse" color-interpolation-filters="sRGB">
<feFlood flood-opacity="0" result="BackgroundImageFix"/>
<feColorMatrix in="SourceAlpha" type="matrix" values="0 0 0 0 0 0 0 0 0 0 0 0 0 0 0 0 0 0 127 0"/>
<feOffset dy="5.98639"/>
<feGaussianBlur stdDeviation="3.59184"/>
<feColorMatrix type="matrix" values="0 0 0 0 0 0 0 0 0 0 0 0 0 0 0 0 0 0 0.25 0"/>
<feBlend mode="normal" in2="BackgroundImageFix" result="effect1_dropShadow"/>
<feBlend mode="normal" in="SourceGraphic" in2="effect1_dropShadow" result="shape"/>
</filter>
<linearGradient id="paint0_linear" x1="317" y1="71.4126" x2="317" y2="320.447" gradientUnits="userSpaceOnUse">
<stop stop-color="#8C8C8C"/>
<stop offset="1" stop-color="#E4E4E4" stop-opacity="0"/>
</linearGradient>
<linearGradient id="paint1_linear" x1="317" y1="71.4126" x2="317" y2="320.447" gradientUnits="userSpaceOnUse">
<stop stop-color="#8C8C8C"/>
<stop offset="1" stop-color="#E4E4E4" stop-opacity="0"/>
</linearGradient>
<linearGradient id="paint2_linear" x1="317" y1="71.4126" x2="317" y2="320.447" gradientUnits="userSpaceOnUse">
<stop stop-color="#8C8C8C"/>
<stop offset="1" stop-color="#E4E4E4" stop-opacity="0"/>
</linearGradient>
</defs>
</svg>
